<?xml version="1.0" encoding="utf-8"?>
<!-- Generator: Adobe Illustrator 16.0.0, SVG Export Plug-In . SVG Version: 6.00 Build 0)  -->
<!DOCTYPE svg PUBLIC "-//W3C//DTD SVG 1.1//EN" "http://www.w3.org/Graphics/SVG/1.1/DTD/svg11.dtd">
<svg version="1.1" id="Layer_1" xmlns="http://www.w3.org/2000/svg" xmlns:xlink="http://www.w3.org/1999/xlink" x="0px" y="0px"
	 width="500px" height="500px" viewBox="0 0 500 500" enable-background="new 0 0 500 500" xml:space="preserve">
<path id="search" fill="#FFFFFF" d="M19.87,17.153c-0.508,0.684-1.514,0.854-2.244,0.381l-6.629-4.287
	c-0.47-0.301-0.711-0.794-0.693-1.291C9.45,12.811,8.328,13.386,7.073,13.6c-1.544,0.263-3.102-0.053-4.388-0.885
	c-1.287-0.832-2.15-2.082-2.432-3.522c-0.281-1.442,0.054-2.898,0.944-4.103c1.841-2.484,5.5-3.106,8.159-1.389
	c2.414,1.563,3.187,4.525,1.932,6.918c0.49-0.191,1.07-0.156,1.543,0.149l6.629,4.286C20.193,15.531,20.376,16.469,19.87,17.153z
	 M10.043,7.527C9.847,6.522,9.246,5.649,8.348,5.07c-1.853-1.2-4.407-0.766-5.69,0.966c-1.284,1.734-0.818,4.12,1.034,5.317
	c1.854,1.199,4.407,0.766,5.691-0.966C10.005,9.548,10.239,8.533,10.043,7.527z"/>
<g id="menu">
	<g>
		<path fill="#FFFFFF" d="M5,23v3h15v-3H5z M1.5,23C0.672,23,0,23.672,0,24.5C0,25.329,0.672,26,1.5,26S3,25.329,3,24.5
			C3,23.672,2.328,23,1.5,23z M5,32h15v-3H5V32z M1.5,29C0.672,29,0,29.672,0,30.5C0,31.329,0.672,32,1.5,32S3,31.329,3,30.5
			C3,29.672,2.328,29,1.5,29z M5,38h15v-3H5V38z M1.5,35C0.672,35,0,35.672,0,36.5C0,37.329,0.672,38,1.5,38S3,37.329,3,36.5
			C3,35.672,2.328,35,1.5,35z"/>
	</g>
</g>
<path id="arrow_right" fill="#FFFFFF" d="M24.757,14.995l1.789-4.495l-1.789-4.496l9.986,4.496L24.757,14.995z"/>
<path id="arrow_left" fill="#FFFFFF" d="M35.743,25.754l-1.789,4.495l1.789,4.496l-9.986-4.496L35.743,25.754z"/>
<path id="arrow_down" fill="#FFFFFF" d="M45.692,25.069l4.495,1.789l4.496-1.789l-4.496,9.986L45.692,25.069z"/>
<path id="arrow_up" fill="#FFFFFF" d="M54.684,15.024l-4.495-1.789l-4.496,1.789l4.496-9.986L54.684,15.024z"/>
<g id="x">
	<g>
		<path fill="#FFFFFF" d="M11.796,49.938l5.075-5.075c0.275-0.276,0.223-0.777-0.119-1.12l-0.62-0.62
			c-0.342-0.342-0.843-0.396-1.119-0.119l-5.075,5.075l-5.075-5.075c-0.275-0.275-0.776-0.223-1.118,0.119l-0.62,0.62
			c-0.342,0.342-0.396,0.843-0.119,1.12l5.075,5.075l-5.075,5.075c-0.276,0.275-0.223,0.776,0.119,1.119l0.62,0.62
			c0.342,0.343,0.843,0.396,1.118,0.119l5.075-5.075l5.075,5.075c0.276,0.276,0.777,0.224,1.119-0.119l0.62-0.62
			c0.342-0.342,0.396-0.843,0.119-1.119L11.796,49.938z"/>
	</g>
</g>
<path id="The_Sharpness" opacity="0.12" enable-background="new    " d="M27.685,47.271l4.739,3.165l0.665-0.346L27.685,47.271z"/>
<g id="Lozenge">
	<g>
		<path fill="#FFFFFF" d="M39.555,46.222c0,0-0.189-1.345-0.775-1.937c-0.741-0.775-1.572-0.78-1.953-0.826
			c-2.729-0.196-6.822-0.196-6.822-0.196h-0.009c0,0-4.094,0-6.822,0.196c-0.381,0.045-1.212,0.049-1.954,0.826
			c-0.584,0.592-0.774,1.937-0.774,1.937S20.25,47.8,20.25,49.377v1.479c0,1.578,0.194,3.156,0.194,3.156s0.19,1.344,0.774,1.936
			c0.742,0.776,1.716,0.751,2.15,0.833c1.56,0.149,6.63,0.196,6.63,0.196s4.098-0.006,6.827-0.204
			c0.381-0.045,1.212-0.049,1.953-0.825c0.584-0.592,0.775-1.936,0.775-1.936s0.195-1.578,0.195-3.156v-1.479
			C39.75,47.8,39.555,46.222,39.555,46.222z M27.987,52.649V47.17l5.27,2.749L27.987,52.649z"/>
	</g>
</g>
<path fill="#FFFFFF" d="M58.92,40.081H41.08c-0.6,0-1.08,0.481-1.08,1.08V59c0,0.6,0.48,1.08,1.08,1.08h9.6v-7.753h-2.613v-3.014
	h2.613v-2.3c0-2.41,1.494-3.909,3.849-3.909c1.417,0,2.371,0.11,2.371,0.11v2.719h-1.597c-1.012,0-1.487,0.354-1.487,1.429v1.951
	h2.979l-0.383,3.014h-2.597v7.753h5.104c0.599,0,1.08-0.48,1.08-1.08V41.16C60,40.562,59.519,40.081,58.92,40.081z"/>
<g>
	<circle fill="#FFFFFF" cx="65.625" cy="50.75" r="3.375"/>
	<circle fill="#FFFFFF" cx="74.625" cy="50.75" r="3.375"/>
</g>
<g>
	<polyline fill="none" stroke="#2DA02A" stroke-miterlimit="10" points="72,12.5 60.5,12.5 60.5,1 	"/>
	<rect x="62.5" y="0.5" fill="none" stroke="#2DA02A" stroke-miterlimit="10" width="10" height="10"/>
	<polygon fill="#2DA02A" points="65.711,3 70.25,3 69.598,7.576 	"/>
	
		<rect x="64.741" y="4.683" transform="matrix(-0.7071 0.7071 -0.7071 -0.7071 118.5355 -36.8524)" fill="#2DA02A" width="4.319" height="2.881"/>
</g>
<g>
	<path fill="#FFFFFF" d="M92.145,19.031v-8.423h2.989l-5.775-7.639l-5.773,7.639h2.989v8.423H92.145z"/>
	<rect x="82" y="0" fill="#FFFFFF" width="15" height="2"/>
</g>
<g>
	<g>
		<path fill="#FFFFFF" d="M92.14,20.698h-4.997c-0.664,0-1.374,0.078-2.132,0.232c-0.766,0.18-1.504,0.563-2.214,1.149
			c-1.034,1.003-1.551,2.121-1.551,3.354c0,1.02,0.364,1.913,1.095,2.68c0.697,0.824,1.711,1.244,3.042,1.26
			c0.251,0,0.519-0.016,0.803-0.049c-0.047,0.131-0.098,0.274-0.151,0.43c-0.063,0.147-0.095,0.333-0.095,0.555
			c0,0.369,0.082,0.685,0.247,0.947c0.142,0.271,0.302,0.525,0.482,0.764c-0.583,0.017-1.316,0.09-2.198,0.22
			c-0.891,0.155-1.741,0.464-2.55,0.928c-0.721,0.432-1.218,0.933-1.493,1.502C80.142,35.24,80,35.757,80,36.222
			c0,0.952,0.436,1.771,1.307,2.456c0.863,0.731,2.17,1.106,3.92,1.124c2.091-0.033,3.69-0.534,4.799-1.506
			c1.069-0.938,1.604-2.015,1.604-3.229c-0.017-0.857-0.21-1.55-0.584-2.081c-0.397-0.522-0.859-1-1.386-1.432l-0.849-0.697
			c-0.123-0.123-0.249-0.266-0.378-0.429c-0.151-0.172-0.229-0.388-0.229-0.648c0-0.269,0.074-0.506,0.224-0.71
			c0.126-0.196,0.264-0.371,0.413-0.526c0.26-0.229,0.506-0.453,0.737-0.673c0.208-0.22,0.405-0.461,0.592-0.722
			c0.38-0.539,0.577-1.256,0.592-2.154c0-0.49-0.055-0.918-0.165-1.285c-0.133-0.367-0.286-0.685-0.459-0.955
			c-0.18-0.284-0.365-0.525-0.553-0.722c-0.196-0.188-0.373-0.33-0.529-0.428h1.541L92.14,20.698z M89.401,34.381
			c0.414,0.474,0.621,1.028,0.621,1.665c0,0.783-0.303,1.425-0.906,1.923c-0.621,0.506-1.521,0.767-2.697,0.782
			c-1.313-0.016-2.348-0.31-3.104-0.881c-0.795-0.572-1.192-1.298-1.192-2.179c0-0.449,0.092-0.832,0.274-1.15
			c0.159-0.302,0.354-0.555,0.584-0.759c0.239-0.196,0.474-0.347,0.704-0.453c0.231-0.098,0.41-0.171,0.537-0.22
			c0.541-0.164,1.07-0.282,1.587-0.355c0.525-0.049,0.852-0.064,0.979-0.049c0.215,0,0.401,0.008,0.561,0.024
			C88.279,33.381,88.963,33.932,89.401,34.381z M88.589,26.999c-0.061,0.335-0.196,0.662-0.408,0.981
			c-0.438,0.45-0.987,0.687-1.645,0.711c-0.521,0-0.983-0.159-1.389-0.479c-0.404-0.318-0.734-0.708-0.992-1.165
			c-0.528-0.98-0.793-1.925-0.793-2.833c-0.017-0.687,0.165-1.308,0.543-1.863c0.449-0.531,1.013-0.806,1.689-0.822
			c0.512,0.017,0.965,0.167,1.359,0.454c0.386,0.303,0.696,0.695,0.933,1.177c0.504,1.006,0.756,2.003,0.756,2.992
			C88.644,26.381,88.625,26.664,88.589,26.999z M99.936,28.519v-0.014h-2.628v-2.679H95.77v2.679h-2.645V30h0.017v0.058h2.628v2.628
			h1.538v-2.628H100v-1.539L99.936,28.519L99.936,28.519z"/>
	</g>
</g>
<path fill="#FFFFFF" d="M79.446,24.404c-0.735,0.327-1.526,0.547-2.356,0.646c0.847-0.508,1.498-1.312,1.804-2.27
	c-0.792,0.47-1.671,0.812-2.604,0.996c-0.749-0.797-1.815-1.296-2.995-1.296c-2.267,0-4.104,1.837-4.104,4.103
	c0,0.322,0.036,0.635,0.106,0.936c-3.41-0.171-6.435-1.806-8.458-4.287c-0.354,0.605-0.555,1.311-0.555,2.063
	c0,1.423,0.724,2.68,1.824,3.415c-0.672-0.021-1.305-0.206-1.857-0.513c0,0.017,0,0.035,0,0.052c0,1.988,1.415,3.646,3.292,4.023
	c-0.345,0.094-0.707,0.144-1.081,0.144c-0.265,0-0.521-0.025-0.772-0.074c0.522,1.631,2.038,2.816,3.833,2.851
	c-1.403,1.101-3.173,1.756-5.096,1.756c-0.332,0-0.658-0.02-0.979-0.057c1.816,1.164,3.974,1.843,6.29,1.843
	c7.548,0,11.675-6.252,11.675-11.674c0-0.179-0.004-0.355-0.013-0.531C78.201,25.95,78.896,25.227,79.446,24.404z"/>
<g>
	<path fill="#FFFFFF" d="M111.663,11.854c0.459,0.647,0.904,1.277,1.35,1.906c-1.668,1.287-4.715,1.795-7.337,0.413
		c-2.465-1.299-4.479-4.368-3.624-8.143c-0.53-0.237-1.068-0.478-1.606-0.719c-0.107-0.049-0.22-0.092-0.32-0.153
		c-0.167-0.101-0.16-0.225-0.014-0.337c0.074-0.057,0.164-0.097,0.248-0.14c1.365-0.696,2.729-1.394,4.096-2.087
		c0.522-0.267,0.671-0.197,0.828,0.379c0.405,1.488,0.813,2.978,1.21,4.47c0.035,0.133-0.005,0.287-0.01,0.432
		c-0.135-0.021-0.279-0.02-0.402-0.07c-0.568-0.238-1.13-0.492-1.696-0.74c-0.39,1.079,0.117,3,1.264,4.139
		C106.991,12.535,109.318,13.216,111.663,11.854z"/>
	<path fill="#FFFFFF" d="M114.719,8.112c0.353-1.206-0.162-3.165-1.482-4.332c-1.351-1.194-3.551-1.772-5.809-0.461
		c-0.448-0.631-0.898-1.266-1.375-1.937c0.145-0.095,0.272-0.194,0.413-0.27c2.464-1.318,4.938-1.333,7.325,0.125
		c2.338,1.427,3.446,3.599,3.441,6.331c-0.001,0.436-0.085,0.875-0.168,1.305c-0.04,0.208,0.004,0.293,0.196,0.373
		c0.516,0.212,1.024,0.443,1.53,0.679c0.109,0.052,0.194,0.155,0.292,0.234c-0.084,0.09-0.151,0.213-0.255,0.266
		c-1.446,0.746-2.896,1.485-4.35,2.219c-0.321,0.163-0.534,0.076-0.63-0.269c-0.437-1.579-0.865-3.161-1.288-4.744
		c-0.026-0.102-0.02-0.269,0.042-0.32c0.063-0.053,0.227-0.027,0.324,0.014C113.526,7.58,114.12,7.848,114.719,8.112z"/>
</g>
<path fill="#FFFFFF" d="M98,40.08H82c-1.1,0-2,0.9-2,2v16c0,1.1,0.9,2,2,2h16c1.1,0,2-0.9,2-2v-16C100,40.98,99.1,40.08,98,40.08z
	 M90.001,46.08c2.2,0,4,1.8,4,4c0,2.2-1.8,4-4,4c-2.201,0-4-1.8-4-4C86,47.88,87.8,46.08,90.001,46.08z M82.5,58.08
	c-0.3,0-0.5-0.2-0.5-0.5v-8.5h2.1c-0.1,0.3-0.1,0.7-0.1,1c0,3.299,2.7,6,6,6c3.299,0,6-2.7,6-6c0-0.301,0-0.7-0.1-1H98v8.5
	c0,0.3-0.2,0.5-0.5,0.5H82.5z M98,44.58c0,0.3-0.2,0.5-0.5,0.5h-2c-0.3,0-0.5-0.2-0.5-0.5v-2c0-0.3,0.2-0.5,0.5-0.5h2
	c0.3,0,0.5,0.2,0.5,0.5V44.58z"/>
</svg>
